{
    "asset" : {
        "generator" : "Khronos glTF Blender I/O v1.4.40",
        "version" : "2.0"
    },
    "scene" : 0,
    "scenes" : [
        {
            "name" : "Scene",
            "nodes" : [
                0,
                1,
                2
            ]
        }
    ],
    "nodes" : [
        {
            "mesh" : 0,
            "name" : "Sphere",
            "scale" : [
                0.5445575714111328,
                0.5445575714111328,
                0.5445575714111328
            ],
            "translation" : [
                -0.012736141681671143,
                1.3715739250183105,
                -0.13442157208919525
            ]
        },
        {
            "mesh" : 1,
            "name" : "Torus",
            "scale" : [
                1.361490249633789,
                1.361490249633789,
                1.361490249633789
            ],
            "translation" : [
                -0.03192108869552612,
                0.6125721335411072,
                -0.2208108901977539
            ]
        },
        {
            "mesh" : 2,
            "name" : "Torus.001",
            "scale" : [
                0.7673720717430115,
                0.7673720717430115,
                0.7673720717430115
            ],
            "translation" : [
                -0.03192108869552612,
                0.6441220045089722,
                -0.2208108901977539
            ]
        }
    ],
    "animations" : [
        {
            "channels" : [
                {
                    "sampler" : 0,
                    "target" : {
                        "node" : 0,
                        "path" : "translation"
                    }
                },
                {
                    "sampler" : 1,
                    "target" : {
                        "node" : 0,
                        "path" : "rotation"
                    }
                },
                {
                    "sampler" : 2,
                    "target" : {
                        "node" : 0,
                        "path" : "scale"
                    }
                }
            ],
            "name" : "SphereAction",
            "samplers" : [
                {
                    "input" : 12,
                    "interpolation" : "LINEAR",
                    "output" : 13
                },
                {
                    "input" : 12,
                    "interpolation" : "LINEAR",
                    "output" : 14
                },
                {
                    "input" : 12,
                    "interpolation" : "LINEAR",
                    "output" : 15
                }
            ]
        },
        {
            "channels" : [
                {
                    "sampler" : 0,
                    "target" : {
                        "node" : 1,
                        "path" : "translation"
                    }
                },
                {
                    "sampler" : 1,
                    "target" : {
                        "node" : 1,
                        "path" : "rotation"
                    }
                },
                {
                    "sampler" : 2,
                    "target" : {
                        "node" : 1,
                        "path" : "scale"
                    }
                }
            ],
            "name" : "TorusAction",
            "samplers" : [
                {
                    "input" : 12,
                    "interpolation" : "LINEAR",
                    "output" : 16
                },
                {
                    "input" : 12,
                    "interpolation" : "LINEAR",
                    "output" : 17
                },
                {
                    "input" : 12,
                    "interpolation" : "LINEAR",
                    "output" : 18
                }
            ]
        }
    ],
    "materials" : [
        {
            "doubleSided" : true,
            "name" : "Material1",
            "pbrMetallicRoughness" : {
                "baseColorTexture" : {
                    "index" : 0,
                    "texCoord" : 0
                },
                "metallicFactor" : 0,
                "roughnessFactor" : 0.5
            }
        },
        {
            "doubleSided" : true,
            "name" : "Material2",
            "pbrMetallicRoughness" : {
                "baseColorTexture" : {
                    "index" : 1,
                    "texCoord" : 0
                },
                "metallicFactor" : 0,
                "roughnessFactor" : 0.5
            }
        },
        {
            "doubleSided" : true,
            "name" : "Material3",
            "pbrMetallicRoughness" : {
                "baseColorTexture" : {
                    "index" : 2,
                    "texCoord" : 0
                },
                "metallicFactor" : 0,
                "roughnessFactor" : 0.5
            }
        }
    ],
    "meshes" : [
        {
            "name" : "Sphere.002",
            "primitives" : [
                {
                    "attributes" : {
                        "POSITION" : 0,
                        "NORMAL" : 1,
                        "TEXCOORD_0" : 2
                    },
                    "indices" : 3,
                    "material" : 0
                }
            ]
        },
        {
            "name" : "Torus",
            "primitives" : [
                {
                    "attributes" : {
                        "POSITION" : 4,
                        "NORMAL" : 5,
                        "TEXCOORD_0" : 6
                    },
                    "indices" : 7,
                    "material" : 1
                }
            ]
        },
        {
            "name" : "Torus.001",
            "primitives" : [
                {
                    "attributes" : {
                        "POSITION" : 8,
                        "NORMAL" : 9,
                        "TEXCOORD_0" : 10
                    },
                    "indices" : 11,
                    "material" : 2
                }
            ]
        }
    ],
    "textures" : [
        {
            "sampler" : 0,
            "source" : 0
        },
        {
            "sampler" : 0,
            "source" : 1
        },
        {
            "sampler" : 0,
            "source" : 2
        }
    ],
    "images" : [
        {
            "bufferView" : 4,
            "mimeType" : "image/png",
            "name" : "AlienHead001"
        },
        {
            "bufferView" : 9,
            "mimeType" : "image/png",
            "name" : "AlienShip001"
        },
        {
            "bufferView" : 14,
            "mimeType" : "image/png",
            "name" : "AlienChair001"
        }
    ],
    "accessors" : [
        {
            "bufferView" : 0,
            "componentType" : 5126,
            "count" : 711,
            "max" : [
                1.000000238418579,
                1,
                1.0000003576278687
            ],
            "min" : [
                -0.9999998211860657,
                -1,
                -0.9948517680168152
            ],
            "type" : "VEC3"
        },
        {
            "bufferView" : 1,
            "componentType" : 5126,
            "count" : 711,
            "type" : "VEC3"
        },
        {
            "bufferView" : 2,
            "componentType" : 5126,
            "count" : 711,
            "type" : "VEC2"
        },
        {
            "bufferView" : 3,
            "componentType" : 5123,
            "count" : 2880,
            "type" : "SCALAR"
        },
        {
            "bufferView" : 5,
            "componentType" : 5126,
            "count" : 973,
            "max" : [
                1.7080326080322266,
                0.28635919094085693,
                1.6382739543914795
            ],
            "min" : [
                -1.6343979835510254,
                -0.39038604497909546,
                -1.6898589134216309
            ],
            "type" : "VEC3"
        },
        {
            "bufferView" : 6,
            "componentType" : 5126,
            "count" : 973,
            "type" : "VEC3"
        },
        {
            "bufferView" : 7,
            "componentType" : 5126,
            "count" : 973,
            "type" : "VEC2"
        },
        {
            "bufferView" : 8,
            "componentType" : 5123,
            "count" : 3456,
            "type" : "SCALAR"
        },
        {
            "bufferView" : 10,
            "componentType" : 5126,
            "count" : 997,
            "max" : [
                1.250172734260559,
                1.420014500617981,
                1.2501823902130127
            ],
            "min" : [
                -1.250172734260559,
                -0.25,
                -1.4077301025390625
            ],
            "type" : "VEC3"
        },
        {
            "bufferView" : 11,
            "componentType" : 5126,
            "count" : 997,
            "type" : "VEC3"
        },
        {
            "bufferView" : 12,
            "componentType" : 5126,
            "count" : 997,
            "type" : "VEC2"
        },
        {
            "bufferView" : 13,
            "componentType" : 5123,
            "count" : 3456,
            "type" : "SCALAR"
        },
        {
            "bufferView" : 15,
            "componentType" : 5126,
            "count" : 251,
            "max" : [
                10.416666666666666
            ],
            "min" : [
                0
            ],
            "type" : "SCALAR"
        },
        {
            "bufferView" : 16,
            "componentType" : 5126,
            "count" : 251,
            "type" : "VEC3"
        },
        {
            "bufferView" : 17,
            "componentType" : 5126,
            "count" : 251,
            "type" : "VEC4"
        },
        {
            "bufferView" : 18,
            "componentType" : 5126,
            "count" : 251,
            "type" : "VEC3"
        },
        {
            "bufferView" : 19,
            "componentType" : 5126,
            "count" : 251,
            "type" : "VEC3"
        },
        {
            "bufferView" : 20,
            "componentType" : 5126,
            "count" : 251,
            "type" : "VEC4"
        },
        {
            "bufferView" : 21,
            "componentType" : 5126,
            "count" : 251,
            "type" : "VEC3"
        }
    ],
    "bufferViews" : [
        {
            "buffer" : 0,
            "byteLength" : 8532,
            "byteOffset" : 0
        },
        {
            "buffer" : 0,
            "byteLength" : 8532,
            "byteOffset" : 8532
        },
        {
            "buffer" : 0,
            "byteLength" : 5688,
            "byteOffset" : 17064
        },
        {
            "buffer" : 0,
            "byteLength" : 5760,
            "byteOffset" : 22752
        },
        {
            "buffer" : 0,
            "byteLength" : 501935,
            "byteOffset" : 28512
        },
        {
            "buffer" : 0,
            "byteLength" : 11676,
            "byteOffset" : 530448
        },
        {
            "buffer" : 0,
            "byteLength" : 11676,
            "byteOffset" : 542124
        },
        {
            "buffer" : 0,
            "byteLength" : 7784,
            "byteOffset" : 553800
        },
        {
            "buffer" : 0,
            "byteLength" : 6912,
            "byteOffset" : 561584
        },
        {
            "buffer" : 0,
            "byteLength" : 206719,
            "byteOffset" : 568496
        },
        {
            "buffer" : 0,
            "byteLength" : 11964,
            "byteOffset" : 775216
        },
        {
            "buffer" : 0,
            "byteLength" : 11964,
            "byteOffset" : 787180
        },
        {
            "buffer" : 0,
            "byteLength" : 7976,
            "byteOffset" : 799144
        },
        {
            "buffer" : 0,
            "byteLength" : 6912,
            "byteOffset" : 807120
        },
        {
            "buffer" : 0,
            "byteLength" : 170658,
            "byteOffset" : 814032
        },
        {
            "buffer" : 0,
            "byteLength" : 1004,
            "byteOffset" : 984692
        },
        {
            "buffer" : 0,
            "byteLength" : 3012,
            "byteOffset" : 985696
        },
        {
            "buffer" : 0,
            "byteLength" : 4016,
            "byteOffset" : 988708
        },
        {
            "buffer" : 0,
            "byteLength" : 3012,
            "byteOffset" : 992724
        },
        {
            "buffer" : 0,
            "byteLength" : 3012,
            "byteOffset" : 995736
        },
        {
            "buffer" : 0,
            "byteLength" : 4016,
            "byteOffset" : 998748
        },
        {
            "buffer" : 0,
            "byteLength" : 3012,
            "byteOffset" : 1002764
        }
    ],
    "samplers" : [
        {
            "magFilter" : 9729,
            "minFilter" : 9986
        }
    ],
    "buffers" : [
        {
            "byteLength" : 1005776,
            "uri" : "data:application/octet-stream;base64,"
        }
    ]
}
