{
    "asset" : {
        "generator" : "Khronos glTF Blender I/O v1.4.40",
        "version" : "2.0"
    },
    "scene" : 0,
    "scenes" : [
        {
            "name" : "Scene",
            "nodes" : [
                0,
                1,
                2,
                3,
                4,
                5,
                6,
                7,
                8,
                9
            ]
        }
    ],
    "nodes" : [
        {
            "name" : "Light",
            "rotation" : [
                0.16907575726509094,
                0.7558803558349609,
                -0.27217137813568115,
                0.570947527885437
            ],
            "translation" : [
                4.076245307922363,
                5.903861999511719,
                -1.0054539442062378
            ]
        },
        {
            "name" : "Camera",
            "rotation" : [
                0.483536034822464,
                0.33687159419059753,
                -0.20870360732078552,
                0.7804827094078064
            ],
            "translation" : [
                7.358891487121582,
                4.958309173583984,
                6.925790786743164
            ]
        },
        {
            "mesh" : 0,
            "name" : "Sphere",
            "scale" : [
                0.2989368438720703,
                0.2989368438720703,
                0.2989368438720703
            ]
        },
        {
            "mesh" : 1,
            "name" : "Torus",
            "scale" : [
                1.2836425304412842,
                -0.12170591205358505,
                1.2319365739822388
            ],
            "translation" : [
                -0.043589748442173004,
                0.0760713666677475,
                -0.040821224451065063
            ]
        },
        {
            "mesh" : 2,
            "name" : "Torus1",
            "rotation" : [
                -0.28709909319877625,
                -0.022092916071414948,
                0.013125031255185604,
                0.9575561285018921
            ],
            "scale" : [
                0.4377666413784027,
                -0.04150593653321266,
                0.420133113861084
            ],
            "translation" : [
                0.0064807250164449215,
                0.020788516849279404,
                -0.006613962352275848
            ]
        },
        {
            "mesh" : 3,
            "name" : "Torus2",
            "rotation" : [
                -0.8263581395149231,
                0.20942646265029907,
                0.2697402834892273,
                0.44778674840927124
            ],
            "scale" : [
                0.7238479256629944,
                -0.06863013654947281,
                0.6946908235549927
            ],
            "translation" : [
                0.0020538773387670517,
                0.029053175821900368,
                -0.02337557077407837
            ]
        },
        {
            "mesh" : 4,
            "name" : "Sphere1",
            "scale" : [
                0.11351343244314194,
                0.11351343244314194,
                0.11351343244314194
            ],
            "translation" : [
                1.1599202156066895,
                0.7559928894042969,
                -0.20919305086135864
            ]
        },
        {
            "mesh" : 5,
            "name" : "Sphere2",
            "scale" : [
                0.11351343244314194,
                0.11351343244314194,
                0.11351343244314194
            ],
            "translation" : [
                -0.15628144145011902,
                0.13871705532073975,
                -0.7435711622238159
            ]
        },
        {
            "mesh" : 6,
            "name" : "Sphere3",
            "scale" : [
                0.11351343244314194,
                0.11351343244314194,
                0.11351343244314194
            ],
            "translation" : [
                0.9606539011001587,
                -0.5283430218696594,
                0.24024701118469238
            ]
        },
        {
            "mesh" : 7,
            "name" : "Sphere4",
            "scale" : [
                0.11351343244314194,
                0.11351343244314194,
                0.11351343244314194
            ],
            "translation" : [
                -0.6528559923171997,
                -0.32036763429641724,
                -0.4146841764450073
            ]
        }
    ],
    "animations" : [
        {
            "channels" : [
                {
                    "sampler" : 0,
                    "target" : {
                        "node" : 3,
                        "path" : "rotation"
                    }
                }
            ],
            "name" : "TorusAction",
            "samplers" : [
                {
                    "input" : 19,
                    "interpolation" : "LINEAR",
                    "output" : 20
                }
            ]
        },
        {
            "channels" : [
                {
                    "sampler" : 0,
                    "target" : {
                        "node" : 4,
                        "path" : "rotation"
                    }
                }
            ],
            "name" : "Torus1Action",
            "samplers" : [
                {
                    "input" : 19,
                    "interpolation" : "LINEAR",
                    "output" : 21
                }
            ]
        },
        {
            "channels" : [
                {
                    "sampler" : 0,
                    "target" : {
                        "node" : 5,
                        "path" : "rotation"
                    }
                }
            ],
            "name" : "Torus2Action",
            "samplers" : [
                {
                    "input" : 22,
                    "interpolation" : "LINEAR",
                    "output" : 23
                }
            ]
        },
        {
            "channels" : [
                {
                    "sampler" : 0,
                    "target" : {
                        "node" : 6,
                        "path" : "translation"
                    }
                }
            ],
            "name" : "Sphere1Action",
            "samplers" : [
                {
                    "input" : 22,
                    "interpolation" : "LINEAR",
                    "output" : 24
                }
            ]
        },
        {
            "channels" : [
                {
                    "sampler" : 0,
                    "target" : {
                        "node" : 7,
                        "path" : "translation"
                    }
                }
            ],
            "name" : "Sphere2Action",
            "samplers" : [
                {
                    "input" : 19,
                    "interpolation" : "LINEAR",
                    "output" : 25
                }
            ]
        },
        {
            "channels" : [
                {
                    "sampler" : 0,
                    "target" : {
                        "node" : 8,
                        "path" : "translation"
                    }
                }
            ],
            "name" : "Sphere3Action",
            "samplers" : [
                {
                    "input" : 19,
                    "interpolation" : "LINEAR",
                    "output" : 26
                }
            ]
        },
        {
            "channels" : [
                {
                    "sampler" : 0,
                    "target" : {
                        "node" : 9,
                        "path" : "translation"
                    }
                }
            ],
            "name" : "Sphere4Action",
            "samplers" : [
                {
                    "input" : 19,
                    "interpolation" : "LINEAR",
                    "output" : 27
                }
            ]
        }
    ],
    "materials" : [
        {
            "doubleSided" : true,
            "name" : "Ship1FaceMaterial",
            "pbrMetallicRoughness" : {
                "baseColorTexture" : {
                    "index" : 0,
                    "texCoord" : 0
                },
                "metallicFactor" : 0,
                "roughnessFactor" : 0.5
            }
        },
        {
            "doubleSided" : true,
            "name" : "MaterialSolar",
            "pbrMetallicRoughness" : {
                "baseColorTexture" : {
                    "index" : 1,
                    "texCoord" : 0
                },
                "metallicFactor" : 0,
                "roughnessFactor" : 0.5
            }
        },
        {
            "doubleSided" : true,
            "name" : "MaterialSatellite",
            "pbrMetallicRoughness" : {
                "baseColorTexture" : {
                    "index" : 2,
                    "texCoord" : 0
                },
                "metallicFactor" : 0,
                "roughnessFactor" : 0.4000000059604645
            }
        }
    ],
    "meshes" : [
        {
            "name" : "Sphere",
            "primitives" : [
                {
                    "attributes" : {
                        "POSITION" : 0,
                        "TEXCOORD_0" : 1
                    },
                    "indices" : 2,
                    "material" : 0
                }
            ]
        },
        {
            "name" : "Torus",
            "primitives" : [
                {
                    "attributes" : {
                        "POSITION" : 3,
                        "TEXCOORD_0" : 4
                    },
                    "indices" : 5,
                    "material" : 1
                }
            ]
        },
        {
            "name" : "Torus.001",
            "primitives" : [
                {
                    "attributes" : {
                        "POSITION" : 6,
                        "TEXCOORD_0" : 7
                    },
                    "indices" : 5,
                    "material" : 1
                }
            ]
        },
        {
            "name" : "Torus.002",
            "primitives" : [
                {
                    "attributes" : {
                        "POSITION" : 8,
                        "TEXCOORD_0" : 9
                    },
                    "indices" : 5,
                    "material" : 1
                }
            ]
        },
        {
            "name" : "Sphere.001",
            "primitives" : [
                {
                    "attributes" : {
                        "POSITION" : 10,
                        "TEXCOORD_0" : 11
                    },
                    "indices" : 12,
                    "material" : 2
                }
            ]
        },
        {
            "name" : "Sphere.002",
            "primitives" : [
                {
                    "attributes" : {
                        "POSITION" : 13,
                        "TEXCOORD_0" : 14
                    },
                    "indices" : 12,
                    "material" : 2
                }
            ]
        },
        {
            "name" : "Sphere.003",
            "primitives" : [
                {
                    "attributes" : {
                        "POSITION" : 15,
                        "TEXCOORD_0" : 16
                    },
                    "indices" : 12,
                    "material" : 2
                }
            ]
        },
        {
            "name" : "Sphere.004",
            "primitives" : [
                {
                    "attributes" : {
                        "POSITION" : 17,
                        "TEXCOORD_0" : 18
                    },
                    "indices" : 12,
                    "material" : 2
                }
            ]
        }
    ],
    "textures" : [
        {
            "sampler" : 0,
            "source" : 0
        },
        {
            "sampler" : 0,
            "source" : 1
        },
        {
            "sampler" : 0,
            "source" : 2
        }
    ],
    "images" : [
        {
            "bufferView" : 3,
            "mimeType" : "image/png",
            "name" : "Ship1FaceTest"
        },
        {
            "bufferView" : 7,
            "mimeType" : "image/png",
            "name" : "SolarPanelRed"
        },
        {
            "bufferView" : 15,
            "mimeType" : "image/jpeg",
            "name" : "SolarPanel003_1K_Displacement"
        }
    ],
    "accessors" : [
        {
            "bufferView" : 0,
            "componentType" : 5126,
            "count" : 559,
            "max" : [
                1.000000238418579,
                1.1271400451660156,
                1.0000003576278687
            ],
            "min" : [
                -0.9999998211860657,
                -1,
                -1.0056498050689697
            ],
            "type" : "VEC3"
        },
        {
            "bufferView" : 1,
            "componentType" : 5126,
            "count" : 559,
            "type" : "VEC2"
        },
        {
            "bufferView" : 2,
            "componentType" : 5123,
            "count" : 2880,
            "type" : "SCALAR"
        },
        {
            "bufferView" : 4,
            "componentType" : 5126,
            "count" : 637,
            "max" : [
                1.25,
                0.25,
                1.25
            ],
            "min" : [
                -1.25,
                -0.25,
                -1.25
            ],
            "type" : "VEC3"
        },
        {
            "bufferView" : 5,
            "componentType" : 5126,
            "count" : 637,
            "type" : "VEC2"
        },
        {
            "bufferView" : 6,
            "componentType" : 5123,
            "count" : 3456,
            "type" : "SCALAR"
        },
        {
            "bufferView" : 8,
            "componentType" : 5126,
            "count" : 637,
            "max" : [
                1.25,
                0.25,
                1.25
            ],
            "min" : [
                -1.25,
                -0.25,
                -1.25
            ],
            "type" : "VEC3"
        },
        {
            "bufferView" : 9,
            "componentType" : 5126,
            "count" : 637,
            "type" : "VEC2"
        },
        {
            "bufferView" : 10,
            "componentType" : 5126,
            "count" : 637,
            "max" : [
                1.25,
                0.25,
                1.25
            ],
            "min" : [
                -1.25,
                -0.25,
                -1.25
            ],
            "type" : "VEC3"
        },
        {
            "bufferView" : 11,
            "componentType" : 5126,
            "count" : 637,
            "type" : "VEC2"
        },
        {
            "bufferView" : 12,
            "componentType" : 5126,
            "count" : 559,
            "max" : [
                1.000000238418579,
                1,
                1.0000003576278687
            ],
            "min" : [
                -0.9999998211860657,
                -1,
                -1
            ],
            "type" : "VEC3"
        },
        {
            "bufferView" : 13,
            "componentType" : 5126,
            "count" : 559,
            "type" : "VEC2"
        },
        {
            "bufferView" : 14,
            "componentType" : 5123,
            "count" : 2880,
            "type" : "SCALAR"
        },
        {
            "bufferView" : 16,
            "componentType" : 5126,
            "count" : 559,
            "max" : [
                1.000000238418579,
                1,
                1.0000003576278687
            ],
            "min" : [
                -0.9999998211860657,
                -1,
                -1
            ],
            "type" : "VEC3"
        },
        {
            "bufferView" : 17,
            "componentType" : 5126,
            "count" : 559,
            "type" : "VEC2"
        },
        {
            "bufferView" : 18,
            "componentType" : 5126,
            "count" : 559,
            "max" : [
                1.000000238418579,
                1,
                1.0000003576278687
            ],
            "min" : [
                -0.9999998211860657,
                -1,
                -1
            ],
            "type" : "VEC3"
        },
        {
            "bufferView" : 19,
            "componentType" : 5126,
            "count" : 559,
            "type" : "VEC2"
        },
        {
            "bufferView" : 20,
            "componentType" : 5126,
            "count" : 559,
            "max" : [
                1.000000238418579,
                1,
                1.0000003576278687
            ],
            "min" : [
                -0.9999998211860657,
                -1,
                -1
            ],
            "type" : "VEC3"
        },
        {
            "bufferView" : 21,
            "componentType" : 5126,
            "count" : 559,
            "type" : "VEC2"
        },
        {
            "bufferView" : 22,
            "componentType" : 5126,
            "count" : 251,
            "max" : [
                10.416666666666666
            ],
            "min" : [
                0
            ],
            "type" : "SCALAR"
        },
        {
            "bufferView" : 23,
            "componentType" : 5126,
            "count" : 251,
            "type" : "VEC4"
        },
        {
            "bufferView" : 24,
            "componentType" : 5126,
            "count" : 251,
            "type" : "VEC4"
        },
        {
            "bufferView" : 25,
            "componentType" : 5126,
            "count" : 250,
            "max" : [
                10.375
            ],
            "min" : [
                0
            ],
            "type" : "SCALAR"
        },
        {
            "bufferView" : 26,
            "componentType" : 5126,
            "count" : 250,
            "type" : "VEC4"
        },
        {
            "bufferView" : 27,
            "componentType" : 5126,
            "count" : 250,
            "type" : "VEC3"
        },
        {
            "bufferView" : 28,
            "componentType" : 5126,
            "count" : 251,
            "type" : "VEC3"
        },
        {
            "bufferView" : 29,
            "componentType" : 5126,
            "count" : 251,
            "type" : "VEC3"
        },
        {
            "bufferView" : 30,
            "componentType" : 5126,
            "count" : 251,
            "type" : "VEC3"
        }
    ],
    "bufferViews" : [
        {
            "buffer" : 0,
            "byteLength" : 6708,
            "byteOffset" : 0
        },
        {
            "buffer" : 0,
            "byteLength" : 4472,
            "byteOffset" : 6708
        },
        {
            "buffer" : 0,
            "byteLength" : 5760,
            "byteOffset" : 11180
        },
        {
            "buffer" : 0,
            "byteLength" : 777343,
            "byteOffset" : 16940
        },
        {
            "buffer" : 0,
            "byteLength" : 7644,
            "byteOffset" : 794284
        },
        {
            "buffer" : 0,
            "byteLength" : 5096,
            "byteOffset" : 801928
        },
        {
            "buffer" : 0,
            "byteLength" : 6912,
            "byteOffset" : 807024
        },
        {
            "buffer" : 0,
            "byteLength" : 599800,
            "byteOffset" : 813936
        },
        {
            "buffer" : 0,
            "byteLength" : 7644,
            "byteOffset" : 1413736
        },
        {
            "buffer" : 0,
            "byteLength" : 5096,
            "byteOffset" : 1421380
        },
        {
            "buffer" : 0,
            "byteLength" : 7644,
            "byteOffset" : 1426476
        },
        {
            "buffer" : 0,
            "byteLength" : 5096,
            "byteOffset" : 1434120
        },
        {
            "buffer" : 0,
            "byteLength" : 6708,
            "byteOffset" : 1439216
        },
        {
            "buffer" : 0,
            "byteLength" : 4472,
            "byteOffset" : 1445924
        },
        {
            "buffer" : 0,
            "byteLength" : 5760,
            "byteOffset" : 1450396
        },
        {
            "buffer" : 0,
            "byteLength" : 420476,
            "byteOffset" : 1456156
        },
        {
            "buffer" : 0,
            "byteLength" : 6708,
            "byteOffset" : 1876632
        },
        {
            "buffer" : 0,
            "byteLength" : 4472,
            "byteOffset" : 1883340
        },
        {
            "buffer" : 0,
            "byteLength" : 6708,
            "byteOffset" : 1887812
        },
        {
            "buffer" : 0,
            "byteLength" : 4472,
            "byteOffset" : 1894520
        },
        {
            "buffer" : 0,
            "byteLength" : 6708,
            "byteOffset" : 1898992
        },
        {
            "buffer" : 0,
            "byteLength" : 4472,
            "byteOffset" : 1905700
        },
        {
            "buffer" : 0,
            "byteLength" : 1004,
            "byteOffset" : 1910172
        },
        {
            "buffer" : 0,
            "byteLength" : 4016,
            "byteOffset" : 1911176
        },
        {
            "buffer" : 0,
            "byteLength" : 4016,
            "byteOffset" : 1915192
        },
        {
            "buffer" : 0,
            "byteLength" : 1000,
            "byteOffset" : 1919208
        },
        {
            "buffer" : 0,
            "byteLength" : 4000,
            "byteOffset" : 1920208
        },
        {
            "buffer" : 0,
            "byteLength" : 3000,
            "byteOffset" : 1924208
        },
        {
            "buffer" : 0,
            "byteLength" : 3012,
            "byteOffset" : 1927208
        },
        {
            "buffer" : 0,
            "byteLength" : 3012,
            "byteOffset" : 1930220
        },
        {
            "buffer" : 0,
            "byteLength" : 3012,
            "byteOffset" : 1933232
        }
    ],
    "samplers" : [
        {
            "magFilter" : 9729,
            "minFilter" : 9986
        }
    ],
    "buffers" : [
        {
            "byteLength" : 1936244,
            "uri" : "data:application/octet-stream;base64,"
        }
    ]
}
