{
    "asset" : {
        "generator" : "Khronos glTF Blender I/O v1.4.40",
        "version" : "2.0"
    },
    "scene" : 0,
    "scenes" : [
        {
            "name" : "Scene",
            "nodes" : [
                0,
                1,
                2,
                3,
                4,
                5
            ]
        }
    ],
    "nodes" : [
        {
            "mesh" : 0,
            "name" : "Cube.003",
            "scale" : [
                0.3632974624633789,
                0.3632974624633789,
                0.3632974624633789
            ],
            "translation" : [
                0.007325367536395788,
                -1.208073616027832,
                0.01759462244808674
            ]
        },
        {
            "mesh" : 1,
            "name" : "Cube",
            "scale" : [
                0.35979217290878296,
                0.35979217290878296,
                0.35979217290878296
            ],
            "translation" : [
                0.10574424266815186,
                0.26191431283950806,
                0
            ]
        },
        {
            "name" : "Lamp",
            "rotation" : [
                0.16907575726509094,
                0.7558803558349609,
                -0.27217137813568115,
                0.570947527885437
            ],
            "translation" : [
                4.076245307922363,
                4.980296611785889,
                -1.0054539442062378
            ]
        },
        {
            "name" : "Camera",
            "rotation" : [
                0.483536034822464,
                0.33687159419059753,
                -0.20870360732078552,
                0.7804827094078064
            ],
            "translation" : [
                7.481131553649902,
                4.42009973526001,
                6.5076398849487305
            ]
        },
        {
            "mesh" : 2,
            "name" : "Cube.001",
            "scale" : [
                0.3632974624633789,
                0.3632974624633789,
                0.3632974624633789
            ],
            "translation" : [
                0,
                0.27035075426101685,
                0.012089621275663376
            ]
        },
        {
            "name" : "Cube.002",
            "scale" : [
                0.3632974624633789,
                0.3632974624633789,
                0.3632974624633789
            ],
            "translation" : [
                0.1256239414215088,
                0.29296451807022095,
                -0.17256155610084534
            ]
        }
    ],
    "animations" : [
        {
            "channels" : [
                {
                    "sampler" : 0,
                    "target" : {
                        "node" : 0,
                        "path" : "rotation"
                    }
                },
                {
                    "sampler" : 1,
                    "target" : {
                        "node" : 0,
                        "path" : "scale"
                    }
                }
            ],
            "name" : "CubeAction3",
            "samplers" : [
                {
                    "input" : 12,
                    "interpolation" : "LINEAR",
                    "output" : 13
                },
                {
                    "input" : 12,
                    "interpolation" : "LINEAR",
                    "output" : 14
                }
            ]
        },
        {
            "channels" : [
                {
                    "sampler" : 0,
                    "target" : {
                        "node" : 1,
                        "path" : "rotation"
                    }
                },
                {
                    "sampler" : 1,
                    "target" : {
                        "node" : 1,
                        "path" : "scale"
                    }
                }
            ],
            "name" : "CubeAction",
            "samplers" : [
                {
                    "input" : 15,
                    "interpolation" : "LINEAR",
                    "output" : 16
                },
                {
                    "input" : 17,
                    "interpolation" : "STEP",
                    "output" : 18
                }
            ]
        },
        {
            "channels" : [
                {
                    "sampler" : 0,
                    "target" : {
                        "node" : 4,
                        "path" : "rotation"
                    }
                },
                {
                    "sampler" : 1,
                    "target" : {
                        "node" : 4,
                        "path" : "scale"
                    }
                }
            ],
            "name" : "CubeAction2",
            "samplers" : [
                {
                    "input" : 19,
                    "interpolation" : "LINEAR",
                    "output" : 20
                },
                {
                    "input" : 19,
                    "interpolation" : "LINEAR",
                    "output" : 21
                }
            ]
        }
    ],
    "materials" : [
        {
            "doubleSided" : true,
            "name" : "Material",
            "pbrMetallicRoughness" : {
                "baseColorTexture" : {
                    "index" : 0,
                    "texCoord" : 0
                },
                "metallicFactor" : 0,
                "roughnessFactor" : 0.5
            }
        },
        {
            "doubleSided" : true,
            "name" : "Material1",
            "pbrMetallicRoughness" : {
                "baseColorTexture" : {
                    "index" : 1,
                    "texCoord" : 0
                },
                "metallicFactor" : 0,
                "roughnessFactor" : 0.5
            }
        }
    ],
    "meshes" : [
        {
            "name" : "Cube.003",
            "primitives" : [
                {
                    "attributes" : {
                        "POSITION" : 0,
                        "NORMAL" : 1,
                        "TEXCOORD_0" : 2
                    },
                    "indices" : 3,
                    "material" : 0
                }
            ]
        },
        {
            "name" : "Cube",
            "primitives" : [
                {
                    "attributes" : {
                        "POSITION" : 4,
                        "NORMAL" : 5,
                        "TEXCOORD_0" : 6
                    },
                    "indices" : 7,
                    "material" : 1
                }
            ]
        },
        {
            "name" : "Cube.001",
            "primitives" : [
                {
                    "attributes" : {
                        "POSITION" : 8,
                        "NORMAL" : 9,
                        "TEXCOORD_0" : 10
                    },
                    "indices" : 11,
                    "material" : 0
                }
            ]
        }
    ],
    "textures" : [
        {
            "sampler" : 0,
            "source" : 0
        },
        {
            "sampler" : 0,
            "source" : 1
        }
    ],
    "images" : [
        {
            "bufferView" : 4,
            "mimeType" : "image/png",
            "name" : "WalkingCubeFeet3"
        },
        {
            "bufferView" : 9,
            "mimeType" : "image/png",
            "name" : "CubeHead3"
        }
    ],
    "accessors" : [
        {
            "bufferView" : 0,
            "componentType" : 5126,
            "count" : 192,
            "max" : [
                1.1007626056671143,
                1.0657410621643066,
                5.050008296966553
            ],
            "min" : [
                -1.0797615051269531,
                -1.6796172857284546,
                -5.050008296966553
            ],
            "type" : "VEC3"
        },
        {
            "bufferView" : 1,
            "componentType" : 5126,
            "count" : 192,
            "type" : "VEC3"
        },
        {
            "bufferView" : 2,
            "componentType" : 5126,
            "count" : 192,
            "type" : "VEC2"
        },
        {
            "bufferView" : 3,
            "componentType" : 5123,
            "count" : 264,
            "type" : "SCALAR"
        },
        {
            "bufferView" : 5,
            "componentType" : 5126,
            "count" : 72,
            "max" : [
                2.715348958969116,
                2.715348720550537,
                2.564422607421875
            ],
            "min" : [
                -2.715348720550537,
                -2.715348720550537,
                -2.8662781715393066
            ],
            "type" : "VEC3"
        },
        {
            "bufferView" : 6,
            "componentType" : 5126,
            "count" : 72,
            "type" : "VEC3"
        },
        {
            "bufferView" : 7,
            "componentType" : 5126,
            "count" : 72,
            "type" : "VEC2"
        },
        {
            "bufferView" : 8,
            "componentType" : 5123,
            "count" : 108,
            "type" : "SCALAR"
        },
        {
            "bufferView" : 10,
            "componentType" : 5126,
            "count" : 384,
            "max" : [
                1.0440551042556763,
                0.9508236646652222,
                6.9443254470825195
            ],
            "min" : [
                -1.0440551042556763,
                -1.5477066040039062,
                -6.9443254470825195
            ],
            "type" : "VEC3"
        },
        {
            "bufferView" : 11,
            "componentType" : 5126,
            "count" : 384,
            "type" : "VEC3"
        },
        {
            "bufferView" : 12,
            "componentType" : 5126,
            "count" : 384,
            "type" : "VEC2"
        },
        {
            "bufferView" : 13,
            "componentType" : 5123,
            "count" : 528,
            "type" : "SCALAR"
        },
        {
            "bufferView" : 14,
            "componentType" : 5126,
            "count" : 248,
            "max" : [
                10.291666666666666
            ],
            "min" : [
                0
            ],
            "type" : "SCALAR"
        },
        {
            "bufferView" : 15,
            "componentType" : 5126,
            "count" : 248,
            "type" : "VEC4"
        },
        {
            "bufferView" : 16,
            "componentType" : 5126,
            "count" : 248,
            "type" : "VEC3"
        },
        {
            "bufferView" : 17,
            "componentType" : 5126,
            "count" : 246,
            "max" : [
                10.208333333333334
            ],
            "min" : [
                0
            ],
            "type" : "SCALAR"
        },
        {
            "bufferView" : 18,
            "componentType" : 5126,
            "count" : 246,
            "type" : "VEC4"
        },
        {
            "bufferView" : 19,
            "componentType" : 5126,
            "count" : 1,
            "max" : [
                0
            ],
            "min" : [
                0
            ],
            "type" : "SCALAR"
        },
        {
            "bufferView" : 20,
            "componentType" : 5126,
            "count" : 1,
            "type" : "VEC3"
        },
        {
            "bufferView" : 21,
            "componentType" : 5126,
            "count" : 247,
            "max" : [
                10.291666666666666
            ],
            "min" : [
                0.041666666666666664
            ],
            "type" : "SCALAR"
        },
        {
            "bufferView" : 22,
            "componentType" : 5126,
            "count" : 247,
            "type" : "VEC4"
        },
        {
            "bufferView" : 23,
            "componentType" : 5126,
            "count" : 247,
            "type" : "VEC3"
        }
    ],
    "bufferViews" : [
        {
            "buffer" : 0,
            "byteLength" : 2304,
            "byteOffset" : 0
        },
        {
            "buffer" : 0,
            "byteLength" : 2304,
            "byteOffset" : 2304
        },
        {
            "buffer" : 0,
            "byteLength" : 1536,
            "byteOffset" : 4608
        },
        {
            "buffer" : 0,
            "byteLength" : 528,
            "byteOffset" : 6144
        },
        {
            "buffer" : 0,
            "byteLength" : 72624,
            "byteOffset" : 6672
        },
        {
            "buffer" : 0,
            "byteLength" : 864,
            "byteOffset" : 79296
        },
        {
            "buffer" : 0,
            "byteLength" : 864,
            "byteOffset" : 80160
        },
        {
            "buffer" : 0,
            "byteLength" : 576,
            "byteOffset" : 81024
        },
        {
            "buffer" : 0,
            "byteLength" : 216,
            "byteOffset" : 81600
        },
        {
            "buffer" : 0,
            "byteLength" : 37458,
            "byteOffset" : 81816
        },
        {
            "buffer" : 0,
            "byteLength" : 4608,
            "byteOffset" : 119276
        },
        {
            "buffer" : 0,
            "byteLength" : 4608,
            "byteOffset" : 123884
        },
        {
            "buffer" : 0,
            "byteLength" : 3072,
            "byteOffset" : 128492
        },
        {
            "buffer" : 0,
            "byteLength" : 1056,
            "byteOffset" : 131564
        },
        {
            "buffer" : 0,
            "byteLength" : 992,
            "byteOffset" : 132620
        },
        {
            "buffer" : 0,
            "byteLength" : 3968,
            "byteOffset" : 133612
        },
        {
            "buffer" : 0,
            "byteLength" : 2976,
            "byteOffset" : 137580
        },
        {
            "buffer" : 0,
            "byteLength" : 984,
            "byteOffset" : 140556
        },
        {
            "buffer" : 0,
            "byteLength" : 3936,
            "byteOffset" : 141540
        },
        {
            "buffer" : 0,
            "byteLength" : 4,
            "byteOffset" : 145476
        },
        {
            "buffer" : 0,
            "byteLength" : 12,
            "byteOffset" : 145480
        },
        {
            "buffer" : 0,
            "byteLength" : 988,
            "byteOffset" : 145492
        },
        {
            "buffer" : 0,
            "byteLength" : 3952,
            "byteOffset" : 146480
        },
        {
            "buffer" : 0,
            "byteLength" : 2964,
            "byteOffset" : 150432
        }
    ],
    "samplers" : [
        {
            "magFilter" : 9729,
            "minFilter" : 9986
        }
    ],
    "buffers" : [
        {
            "byteLength" : 153396,
            "uri" : "data:application/octet-stream;base64,"
        }
    ]
}
